# xmcd
# 
# Track frame offsets:
#     150
#     11429
#     18893
#     31759
#     57954
#     68623
#     81010
#     115319
#     138243
#     189111
#     201790
#     223525
#     236096
#     254345
#     275301
# 
# Disc length: 3902
# 
# Revision: 2
# Processed by: cddbd v1.5.2PL0 Copyright (c) Steve Scherf et al.
# Submitted via: BonkEnc v1.0.15
# 
DISCID=bf0f3c0f
DTITLE=Old Boys - Rock - Blues Live
DYEAR=1996
DGENRE=R&B
TTITLE0=Do You Love Me
TTITLE1=Hippy Hippy Shake
TTITLE2=Black Is Black
TTITLE3=I Dont Wanna Talk About It
TTITLE4=Hey Tonight
TTITLE5=Proud Mary
TTITLE6=Sweet Home Chicago
TTITLE7=Radar Love
TTITLE8=I need Your Love So Bad
TTITLE9=Have I The Right
TTITLE10=A Little Help From My Friends
TTITLE11=Midnight Hour
TTITLE12=Nights In White Satin
TTITLE13=A Whiter Shade Of Pale
TTITLE14=Born To Be Wilde
EXTD=
EXTT0=
EXTT1=
EXTT2=
EXTT3=
EXTT4=
EXTT5=
EXTT6=
EXTT7=
EXTT8=
EXTT9=
EXTT10=
EXTT11=
EXTT12=
EXTT13=
EXTT14=
PLAYORDER=
